<?xml version="1.0" encoding="UTF-8" standalone="no"?>
<!-- Generator: Adobe Illustrator 16.0.0, SVG Export Plug-In . SVG Version: 6.00 Build 0)  -->

<svg
   xmlns:dc="http://purl.org/dc/elements/1.1/"
   xmlns:cc="http://creativecommons.org/ns#"
   xmlns:rdf="http://www.w3.org/1999/02/22-rdf-syntax-ns#"
   xmlns:svg="http://www.w3.org/2000/svg"
   xmlns="http://www.w3.org/2000/svg"
   xmlns:sodipodi="http://sodipodi.sourceforge.net/DTD/sodipodi-0.dtd"
   xmlns:inkscape="http://www.inkscape.org/namespaces/inkscape"
   version="1.1"
   id="Ebene_1_Kopie_3_Kopie_Kopie_Kopie_Kopie_2"
   x="0px"
   y="0px"
   width="408.89001"
   height="163.28003"
   viewBox="0 0 408.89 163.28"
   enable-background="new 0 0 841.89 595.28"
   xml:space="preserve"
   sodipodi:docname="FRA_UAS_Logo_50_RZ_2.svg"
   inkscape:version="0.92.5 (2060ec1f9f, 2020-04-08)"><metadata
   id="metadata4094"><rdf:RDF><cc:Work
       rdf:about=""><dc:format>image/svg+xml</dc:format><dc:type
         rdf:resource="http://purl.org/dc/dcmitype/StillImage" /><dc:title></dc:title></cc:Work></rdf:RDF></metadata><defs
   id="defs4092" /><sodipodi:namedview
   pagecolor="#ffffff"
   bordercolor="#666666"
   borderopacity="1"
   objecttolerance="10"
   gridtolerance="10"
   guidetolerance="10"
   inkscape:pageopacity="0"
   inkscape:pageshadow="2"
   inkscape:window-width="1920"
   inkscape:window-height="1015"
   id="namedview4090"
   showgrid="false"
   inkscape:object-nodes="false"
   inkscape:zoom="1.1539124"
   inkscape:cx="436.5"
   inkscape:cy="346"
   inkscape:window-x="0"
   inkscape:window-y="0"
   inkscape:window-maximized="1"
   inkscape:current-layer="Ebene_1_Kopie_3_Kopie_Kopie_Kopie_Kopie_2" />
<path
   d="m 117.08584,89.407141 c 0.362,-0.885999 0.808,-1.871998 0.258,-2.776997 1.031,-1.584999 0.724,-2.652997 -0.262,-4.066996 -0.236,-0.022 -0.458,-0.017 -0.672,0.003 -0.137,-0.35 -0.333,-0.706999 -0.582,-1.082999 0.53,-1.009999 1.725,-1.467999 1.482,-2.837997 -0.113,-0.644 -0.694,-1.297999 -1.434,-1.678998 -0.172,-0.651 -0.76,-1.290999 -1.51,-1.666999 -0.543,-1.071999 -2.074,-1.984998 -3.457,-1.605998 -0.464,-0.109 -0.947,-0.113 -1.413,0.041 -0.463,-0.087 -0.943,-0.075 -1.4,0.1 -0.035,0.012 -0.075,0.024 -0.112,0.036 -0.388,-0.04 -0.782,-0.011 -1.161,0.132999 -0.058,0.02 -0.123,0.04 -0.188,0.06 -0.363,-0.026 -0.729,10e-4 -1.083,0.137 -0.058,0.02 -0.122,0.04 -0.187,0.059 -0.362,-0.025 -0.729,0.002 -1.082,0.137 -0.075,0.026 -0.157,0.051 -0.243,0.077 -0.344,-0.017 -0.69,0.011 -1.025,0.139 -0.123,0.042 -0.266,0.084 -0.417,0.126 -0.282,0.006 -0.564,0.04 -0.838,0.145 -0.122,0.042 -0.264,0.084 -0.413,0.124999 -0.284,0.005 -0.568,0.04 -0.844,0.145 -0.123,0.042 -0.265,0.084 -0.415,0.125 -0.283004,0.005 -0.566004,0.04 -0.841004,0.145 -0.12401,0.043 -0.26801,0.085 -0.42101,0.127 -0.281,0.006 -0.561995,0.042 -0.834995,0.146 -0.122,0.042 -0.264,0.083 -0.414,0.125 -0.283,0.005 -0.566,0.04 -0.842,0.145 -0.122,0.042 -0.264,0.084 -0.414,0.125999 -0.284,0.005 -0.568,0.04 -0.843,0.146 -0.122,0.042 -0.263,0.083 -0.412,0.125 -0.284,0.005 -0.568,0.04 -0.843,0.146 -0.121,0.042 -0.26,0.083 -0.407,0.124 -0.281,0.007 -0.562,0.042 -0.834,0.146 -0.669,0.230999 -1.803,0.429999 -2.811,0.870999 -0.417,0.121 -0.85,0.266 -1.26,0.450999 -0.396,0.116 -0.805,0.255 -1.194,0.429 -0.409,0.119 -0.832,0.263 -1.234,0.445 -0.398,0.115999 -0.808,0.255999 -1.198,0.431999 -0.399,0.117 -0.811,0.256 -1.203,0.433 -0.403,0.118 -0.819,0.258999 -1.215,0.436999 -0.398,0.116 -0.809,0.255 -1.2,0.431 -0.406,0.119 -0.826,0.261 -1.225,0.440999 -0.399,0.117 -0.81,0.257 -1.203,0.433 -0.43,0.125 -0.874,0.277 -1.293,0.472999 -0.46,0.138 -0.934,0.305 -1.372,0.526 -0.406,0.127 -0.817,0.281 -1.201,0.475999 -0.403,0.126 -0.811,0.279 -1.191,0.472 -0.408,0.128 -0.82,0.283 -1.206,0.478999 -0.469,0.148 -0.945,0.332 -1.376,0.573 -0.495,0.166 -0.987,0.375 -1.42,0.652999 -0.407,0.15 -0.804,0.333 -1.16,0.563 -0.405,0.149 -0.8,0.331999 -1.155,0.560999 -0.412,0.151 -0.814,0.338 -1.174,0.572 -0.399,0.147999 -0.788,0.328999 -1.138,0.553999 -0.408,0.15 -0.806,0.334 -1.164,0.564999 -0.405,0.149 -0.799,0.332 -1.154,0.561 -0.406,0.149 -0.802,0.333 -1.158,0.561999 -0.407,0.15 -0.805,0.334 -1.162,0.565 -0.404,0.149 -0.797,0.331999 -1.152,0.559999 -0.404,0.149 -0.797,0.332 -1.152,0.559 -0.519,0.191999 -1.023,0.436999 -1.444,0.766999 -0.404,0.17 -0.788,0.379999 -1.12,0.641999 -0.404,0.171 -0.788,0.381 -1.12,0.644 -0.398,0.167999 -0.776,0.374999 -1.105,0.632999 -0.404,0.171 -0.788,0.381 -1.121,0.642999 -0.399,0.169 -0.779,0.376 -1.109,0.634 -0.395,0.167 -0.771,0.370999 -1.099,0.623999 -0.404,0.169 -0.789,0.377 -1.125,0.635999 -0.403,0.169 -0.787,0.376 -1.12,0.635 -0.405,0.169 -0.79,0.377999 -1.125,0.637999 -0.399,0.167 -0.78,0.373 -1.111,0.628 -0.404,0.167999 -0.789,0.375999 -1.124,0.634999 -0.496,0.208 -0.966,0.470999 -1.344,0.820999 -0.396,0.187 -0.766,0.413 -1.075,0.697549 -0.398,0.188 -0.771,0.415 -1.081,0.702 -0.398,0.188 -0.771,0.416 -1.083,0.704 -0.396,0.187 -0.767,0.413 -1.076,0.699 -0.398,0.188 -0.771,0.415 -1.081,0.702 -0.388,0.183 -0.752,0.403 -1.058,0.681 -0.397,0.185 -0.771,0.408 -1.083,0.69 -0.398,0.185 -0.773,0.408 -1.086,0.691 -0.399,0.18499 -0.775,0.40899 -1.089,0.69299 -0.399,0.185 -0.776,0.409 -1.09,0.693 -0.428,0.199 -0.827,0.444 -1.153,0.758 -0.4,0.193 -0.77,0.431 -1.076,0.728 -0.397,0.192 -0.764,0.429 -1.068,0.725 -0.396,0.192 -0.763,0.429 -1.067,0.724 -0.846,0.41 -1.567,1.011 -1.795,1.98 0.398,1.44 0.825,2.558 0.678,4.52299 0.694,0.793 1.829,0.634 2.476,0.697 -0.074,0.129 -0.167,0.241 -0.27,0.342 -0.199,0.12 -0.384,0.252 -0.547,0.406 -0.737,0.451 -1.599,0.785 -1.575,1.959 -0.138,0.388 0.788,0.771 0.788,1.301 0.003,1.019 -0.096,0.468 0.602,1.312 0.123,0.149 -0.113,0.615 0.019,0.754 0.281,0.307 0.589,0.051 0.955,0.548 0.567,0.76 0.734,2.15499 2.142,2.40699 -0.66,0.785 -0.211,0.358 -0.422,1.623 0.721,-0.96 1.909,-0.634 1.531,-0.576 0.325,0.858 0.045,1.282 0.056,2.269 1.477,0.342 -1.381,2.399 -0.265,3.49 0.873,-0.025 0.798,1.048 1.421,0.548 0.383,-0.179 11.819,-10.00799 24.723,-17.20199 25.831,-14.40198 48.583009,-17.124528 56.333009,-18.291527 1.406,-0.04 1.207,0.022 2.532,-0.521999 0.048,-0.598 0.325,-1.377999 -0.368,-1.783999 0.81,0.438 0.896,-1.984998 1.295,-2.401997 -1.266,-1.684999 -0.328,-1.625999 -1.601,-3.297997 z"
   id="path3949"
   inkscape:connector-curvature="0"
   style="clip-rule:evenodd;fill:#e6007e;fill-rule:evenodd"
   sodipodi:nodetypes="ccccccccccccccccccccccccccccccccccccccccccccccccccccccccccccccccccccccccccccccccccccccccccccccccccccccccccccccc" />
<path
   d="m 146.71284,20.4302 c 0.401,-0.981999 0.896,-2.075998 0.285,-3.079997 1.145,-1.758008 0.803,-2.942007 -0.289,-4.511005 -0.356,-0.034 -0.682,-0.006 -0.995,0.044 -0.087,-0.139 -0.174,-0.276 -0.275,-0.421 -0.403,-0.038 -0.769,10e-4 -1.118,0.066 -0.053,-0.08 -0.099,-0.158 -0.156,-0.24 -0.417,-0.04 -10.842,-6.6471345 -11.27,-6.5151345 -0.424,-0.081 -0.858,-0.064 -1.281,0.065 -0.424,-0.081 -0.858,-0.065 -1.282,0.063 -0.425,-0.081 -0.862,-0.066 -1.286,0.064 -0.478,-0.09 -0.972,-0.078 -1.444,0.1029993 -0.042,0.015 -0.091,0.029 -0.137,0.043 -0.379,-0.031 -0.763,-0.002 -1.132,0.139 -0.283,0.098 -0.651,0.191 -1.056,0.297 -0.061,0.018 -0.123,0.02 -0.183,0.042 -0.045,0.016 -0.097,0.031 -0.146,0.046 -0.144,0.04 -0.29,0.082 -0.438,0.126 -0.135,0.036 -0.279,0.074 -0.428,0.113 -0.076,0.021 -0.154,0.024 -0.229,0.053 -0.056,0.019 -0.118,0.038 -0.18,0.057 -0.118,0.033 -0.238,0.067 -0.359,0.1039993 -0.135,0.037 -0.279,0.074 -0.428,0.113 -0.091,0.023 -0.183,0.029 -0.272,0.063 -0.065,0.022 -0.138,0.045 -0.211,0.067 -0.09,0.025 -0.181,0.051 -0.273,0.079 -0.167,0.045 -0.345,0.092 -0.534,0.142 -0.074,0.021 -0.149,0.024 -0.223,0.052 -0.055,0.019 -0.118,0.038 -0.179,0.057 -0.122,0.034 -0.245,0.069 -0.37,0.107 -0.154,0.042 -0.32,0.085 -0.491,0.13 -0.066,0.019 -0.135,0.021 -0.2,0.046 -0.049,0.017 -0.105,0.034 -0.159,0.051 -0.136,0.037 -0.273,0.077 -0.414,0.1189993 -0.123,0.033 -0.253,0.067 -0.387,0.102 -0.093,0.024 -0.188,0.03 -0.279,0.065 -0.067,0.023 -0.143,0.046 -0.219,0.069 -0.082,0.023 -0.165,0.046 -0.249,0.071 -0.164,0.045 -0.34,0.091 -0.526,0.14 -0.082,0.022 -0.166,0.026 -0.247,0.057 -0.06,0.021 -0.126,0.041 -0.192,0.061 -0.113,0.031 -0.227,0.064 -0.342,0.099 -0.144,0.039 -0.298,0.08 -0.457,0.121 -0.083,0.022 -0.168,0.027 -0.25,0.058 -0.062,0.021 -0.13,0.042 -0.199,0.063 -0.102,0.028 -0.205,0.058 -0.309,0.089 -0.159,0.043 -0.331,0.088 -0.51,0.136 -0.074,0.021 -0.149,0.023 -0.222,0.051 -0.053,0.019 -0.113,0.036 -0.171,0.054 -0.129,0.036 -0.26,0.073 -0.393,0.113 -0.153,0.042 -0.318,0.084 -0.489,0.129 -0.062,0.018 -0.125,0.02 -0.187,0.043 -0.044,0.016 -0.096,0.03 -0.144,0.046 -0.147,0.04 -0.297,0.083 -0.45,0.129 -0.106,0.028 -0.216,0.057 -0.331,0.087 -0.106,0.025 -0.213,0.034 -0.317,0.073 -0.075,0.026 -0.157,0.051 -0.242,0.077 -0.063,0.017 -0.125,0.035 -0.189,0.053 -0.172,0.048 -0.357,0.097 -0.554,0.14914 -0.084,0.022 -0.171,0.027 -0.254,0.059 -0.062,0.021 -0.133,0.043 -0.203,0.064 -0.1,0.027 -0.2,0.056 -0.301,0.086 -0.171,0.046 -0.356,0.095 -0.551,0.146 -0.06,0.018 -0.122,0.02 -0.181,0.042 -0.042,0.015 -0.091,0.029 -0.136,0.043 -0.158,0.043 -0.319,0.089 -0.482,0.139 -0.583,0.156 -1.302,0.330997 -1.989,0.600997 -0.457,0.125 -0.942,0.273 -1.406,0.471 -0.401,0.113999 -0.819,0.249999 -1.22,0.419999 -0.402,0.115 -0.821,0.25 -1.222,0.422 -0.396,0.113 -0.808,0.247 -1.204,0.414999 -0.399,0.113 -0.814,0.248 -1.214,0.417 -0.405,0.115 -0.828,0.252 -1.233,0.425999 -0.396004,0.113 -0.810004,0.247 -1.206014,0.416 -0.398,0.113 -0.812995,0.248 -1.210995,0.417 -0.404,0.115 -0.824,0.250999 -1.227,0.422999 -0.398,0.114 -0.812,0.248 -1.209,0.417 -0.396,0.113 -0.807,0.246 -1.202,0.412999 -0.329,0.094 -0.669,0.202 -1.003,0.332 -0.365,0.099 -0.75,0.214 -1.129,0.355 -0.389,0.104 -0.805,0.226 -1.214,0.376009 -0.395,0.106 -0.818,0.229 -1.235,0.383 -0.393,0.105 -0.813,0.228 -1.227,0.38 -0.392,0.104999 -0.812,0.226999 -1.225,0.378999 -0.135,0.036 -0.274,0.075 -0.416,0.116 -0.276,0 -0.552,0.034 -0.823,0.124 -0.424,-0.068 -0.859,-0.038 -1.279,0.101 -0.424,-0.069 -0.858,-0.04 -1.279,0.099 -0.448,-0.072 -0.909,-0.043 -1.351,0.119 -0.434,-0.057 -0.878,-0.025 -1.303,0.137 -0.019,0.006 -0.041,0.013 -0.061,0.019 -0.406,-0.041 -0.819,-0.011 -1.216,0.14 -0.021,0.007 -0.047,0.015 -0.069,0.022 -0.403,-0.04 -0.813,-0.01 -1.208,0.14 -0.021,0.007 -0.045,0.014 -0.066,0.021 -0.404,-0.04 -0.814,-0.01 -1.209,0.141 -0.02,0.007 -0.043,0.014 -0.064,0.021 -0.405,-0.041 -0.816,-0.011 -1.212,0.141 -0.021,0.007 -0.045,0.014 -0.067,0.021 -0.404,-0.04 -0.815,-0.011 -1.21,0.141 -0.015,0.005 -0.033,0.01 -0.048,0.015 -0.4,-0.038 -0.807,-0.008 -1.197,0.141 -0.11,0.038 -0.236,0.076 -0.369,0.112998 -0.288,0.008 -0.576,0.044 -0.856,0.151 -0.147,0.051 -0.319,0.101 -0.504,0.151 -0.25,0.017 -0.5,0.062 -0.743,0.154 -0.146,0.051 -0.317,0.1 -0.501,0.15 -0.252,0.017 -0.503,0.061 -0.749,0.154 -0.147,0.051 -0.32,0.101 -0.505,0.152 -0.25,0.017 -0.5,0.062 -0.744,0.154999 -0.147,0.051 -0.319,0.101 -0.505,0.151 -0.25,0.017 -0.5,0.062 -0.743,0.155 -0.146,0.051 -0.316,0.1 -0.5,0.15 -0.252,0.017 -0.504,0.061 -0.75,0.155 -0.147,0.051 -0.318,0.1 -0.503,0.15 -0.251,0.017 -0.502,0.062 -0.747,0.154999 -0.146,0.051 -0.318,0.1 -0.502,0.15 -0.251,0.017 -0.501,0.062 -0.746,0.155 -0.146,0.051 -0.316,0.1 -0.5,0.15 -0.252,0.017 -0.504,0.061 -0.75,0.155 -0.148,0.051 -0.32,0.101 -0.506,0.151 -0.25,0.018 -0.5,0.062 -0.743,0.155 -0.142,0.049 -0.308,0.098 -0.485,0.145999 -0.233,0.021 -0.466,0.07 -0.692,0.157 -0.695,0.242 -1.877,0.449 -2.925,0.909999 -0.4,0.117 -0.813,0.255 -1.208,0.429 -0.402,0.117 -0.816,0.256 -1.213,0.429999 -0.398,0.116 -0.809,0.254 -1.202,0.426 -0.406,0.118 -0.826,0.259 -1.228,0.436 -0.396,0.114999 -0.804,0.251999 -1.196,0.423999 -0.408,0.118 -0.829,0.259 -1.232,0.437 -0.4,0.117 -0.813,0.255999 -1.208,0.430009 -0.4,0.117 -0.812,0.255 -1.207,0.428 -0.402,0.117 -0.817,0.256 -1.214,0.430999 -0.399,0.116 -0.81,0.254 -1.204,0.426 -0.405,0.118 -0.824,0.258 -1.225,0.434 -0.4,0.116999 -0.812,0.255999 -1.208,0.428999 -0.403,0.117 -0.818,0.257 -1.216,0.432 -0.402,0.117 -0.816,0.255999 -1.213,0.430999 -0.402,0.117 -0.816,0.256 -1.213,0.431 -0.579,0.171 -1.181,0.386999 -1.712,0.693999 -0.404,0.14 -0.804,0.308 -1.171,0.519 -0.412,0.143 -0.82,0.312999 -1.192,0.529999 -0.401,0.14 -0.799,0.308 -1.164,0.518 -0.405,0.140999 -0.808,0.308999 -1.175,0.521999 -0.41,0.142 -0.815,0.312 -1.186,0.527 -0.398,0.138999 -0.792,0.304999 -1.154,0.512999 -0.411,0.142 -0.819,0.312 -1.192,0.529 -0.404,0.139999 -0.803,0.308999 -1.169,0.519999 -0.403,0.14 -0.803,0.308 -1.169,0.518999 -0.408,0.142 -0.813,0.311 -1.184,0.525 -0.396,0.137 -0.787,0.302 -1.147,0.506999 -0.396,0.13601 -0.788,0.29901 -1.15,0.50201 -0.404,0.138 -0.806,0.303 -1.176,0.509999 -0.41,0.139 -0.816,0.307 -1.191,0.517 -0.403,0.137 -0.803,0.302 -1.173,0.508999 -0.408,0.13899 -0.813,0.30499 -1.187,0.51499 -0.405,0.138 -0.807,0.304 -1.178,0.511999 -0.406,0.138 -0.809,0.304 -1.181,0.513 -0.407,0.138 -0.811,0.305 -1.183,0.512999 -0.404,0.137 -0.805,0.302 -1.174,0.509 -0.343,0.116 -0.685,0.253 -1.007,0.416999 -0.397,0.127 -0.798,0.279 -1.174,0.468 -1.2869998,0.407 -2.631,1.062999 -2.963,2.472997 -0.364,1.565999 0.8500002,2.633998 0.6970002,4.657996 0.716,0.814999 1.8839998,0.652999 2.5499998,0.717999 -1.3899998,0.474 -1.8999998,0.581 -1.8659998,2.324998 -0.141,0.398999 0.215,1.258999 0.214,1.802998 0.004,1.049999 -0.098,0.483 0.6189998,1.351999 0.127,0.153999 2.575,-0.916999 2.709,-0.775 0.29,0.315 -2.083,1.603999 -1.706,2.114998 0.583,0.783 0.756,2.220998 2.204,2.479998 -0.787,0.934999 -1.038,1.519998 -1.278,3.332996 -0.004,0.002 -0.008,0.004 -0.012,0.007 -0.519,-0.137999 2.803,0.708 1.944,0.839 0.334,0.884999 0.047,1.321998 0.058,2.336997 1.521,0.351 -1.649,0.925999 -0.501,2.048998 0.522,-0.015 0.953,-0.183 1.352,-0.413999 0.472,-0.039 13.073,-6.474994 25.122,-10.81399 16.315,-5.875994 24.275,-7.335992 24.285,-7.327992 3.242,-1.074999 8.982,-2.903997 9.333,-3.082997 0.016,0.015 0.011,-0.529 0.027,-0.514 0.42,-0.012 0.783,-0.117999 1.116,-0.278999 0.043,0.041 0.086,0.07 0.129,0.112 0.43,-0.012 0.799,-0.125 1.139,-0.293 0.046,0.043 0.092,0.075 0.139,0.12 0.43,-0.012 0.798,-0.125 1.137,-0.292 0.046,0.043 0.093,0.075 0.139,0.121 0.429,-0.012 0.797,-0.124 1.136,-0.292 0.046,0.043 0.092,0.075 0.138,0.12 0.43,-0.012 0.799,-0.125 1.139,-0.293 0.046,0.044 0.092,0.075 0.139,0.121 0.429,-0.012 0.797,-0.124 1.135,-0.291999 0.047,0.044 0.094,0.076 0.141,0.122999 0.417,-0.012 0.777,-0.116999 1.108,-0.276999 0.053,0.049 0.105,0.085 0.158,0.137 0.41,-0.012 0.764,-0.114 1.09,-0.27 0.061,0.057 0.121,0.099 0.182,0.158 0.412,-0.012 0.769,-0.115 1.097,-0.272 0.062,0.058 0.124,0.101 0.187,0.162 0.413,-0.012 0.77,-0.115 1.098,-0.273 0.062,0.057 0.123,0.1 0.185,0.161 0.455,-0.013 0.84,-0.142 1.195,-0.328 0.039,0.037 0.077,0.062 0.115,0.1 0.52,-0.015 0.948,-0.183 1.344,-0.413999 0.481,-0.026 0.886,-0.179 1.259,-0.394 0.468,-0.032 0.865,-0.181 1.23,-0.392 0.467,-0.032 0.864,-0.180999 1.229,-0.391999 0.465,-0.032 0.86,-0.18 1.223,-0.39 0.47,-0.032 0.869,-0.182 1.236,-0.395999 0.477,-0.033 0.88,-0.188 1.251,-0.407 0.491,-0.039 0.906,-0.205 1.287,-0.438 0.467,-0.049 0.866995,-0.209999 1.233995,-0.436999 0.46001,-0.051 0.85501,-0.211 1.218014,-0.436 0.455,-0.052 0.848,-0.209 1.207,-0.430999 0.459,-0.051 0.854,-0.21 1.216,-0.434 0.459,-0.052 0.855,-0.211 1.217,-0.435989 0.456,-0.052 0.849,-0.209 1.208,-0.432 0.458,-0.051 0.852,-0.209 1.213,-0.433 0.462,-0.051 0.859,-0.211999 1.223,-0.437999 0.457,-0.052 0.849,-0.21 1.209,-0.433 0.458,-0.051 0.852,-0.20901 1.213,-0.433009 0.436,-0.048 0.812,-0.195 1.159,-0.401 0.404,-0.036 0.757,-0.156 1.081,-0.332 0.474,-0.014 0.87,-0.155999 1.236,-0.354999 l 0.003,0.003 c 0.474,-0.014 0.87,-0.156 1.236,-0.356 0.001,10e-4 0.002,0.002 0.004,0.003 0.474,-0.014 0.871,-0.156 1.237,-0.356 0.001,0 0.001,10e-4 0.002,10e-4 0.474,-0.014 0.87,-0.155999 1.237,-0.354999 10e-4,0 10e-4,10e-4 0.002,0.002 0.474,-0.014 0.87,-0.156 1.236,-0.356 10e-4,10e-4 0.002,0.002 0.004,0.003 0.475,-0.014 0.871,-0.156 1.237,-0.356999 0.001,0.001 0.002,0.001 0.003,0.002 0.473,-0.014 0.869,-0.155 1.234,-0.355 0.001,0.001 0.002,0.002 0.004,0.003 0.474,-0.014 0.871,-0.156 1.237,-0.356 l 0.003,0.003 c 0.474,-0.014 0.87,-0.156 1.236,-0.356999 0.001,10e-4 0.002,10e-4 0.003,0.002 0.474,-0.014 0.869,-0.156 1.235,-0.356 0.001,10e-4 0.002,0.002 0.004,0.003 0.475,-0.014 1.837,-0.656999 7.438,-1.252999 5.262,-0.421999 11.322,-0.789999 15.089,0.019 0.382,-0.011 -1.019,-1.984998 0.449,-2.587997 0.054,-0.663 0.361,-1.527999 -0.408,-1.979008 0.897,0.487009 1.348,-0.305 1.788,-0.767999 -1.399,-1.853999 -0.711,-3.685997 -2.122,-5.539994 z"
   id="path3951"
   inkscape:connector-curvature="0"
   style="clip-rule:evenodd;fill:#e6007e;fill-rule:evenodd"
   sodipodi:nodetypes="cccccccccccccccccccccccccccccccccccccccccccccccccccccccccccccccccccccccccccccccccccccccccccccccccccccccccccccccccccccccccccccccccccccccccccccccccccccccccccccccccccccccccccccccccccccccccccccccccccccccccccccccccccccccccccccccccccccccccccccccccccccccccc" />
<path
   d="m 149.87784,21.393199 c 0.384,-0.939999 0.855,-1.985998 0.272,-2.944997 1.095,-1.682008 0.768,-2.814007 -0.276,-4.314006 -0.253,-0.024 -0.492,-0.019 -0.722,0.003 -0.133,-0.236999 -0.281,-0.477999 -0.458,-0.730999 -0.339,-0.032 -0.649,-0.007 -0.948,0.039 -0.09,-0.144 0.263,-0.483999 0.717,-0.314 0.516,-1.179998 1.92,-1.633998 1.652,-3.1521363 -0.132,-0.751 -0.86,-1.5179993 -1.757,-1.8939993 0,0 -26.216,-8.1330037 -64.575009,-5.0459965 -38.359,3.0869979 -62.887,17.9961341 -62.887,17.9961341 -1.902,1.257999 -3.195,1.899999 -3.359,2.599998 0.413,1.491998 0.854,2.646997 0.701,4.683005 0.719,0.819999 1.894,0.656 2.563,0.721999 -0.639,1.112999 -2.512,1.050999 -2.478,2.803998 -0.141,0.400999 0.817,0.799999 0.816,1.345998 0.003,1.054999 -0.098,0.485 0.622,1.358999 0.128,0.154 -0.116,0.636999 0.02,0.779999 0.291,0.317 0.61,0.053 0.99,0.566 0.587,0.785999 0.759,2.232007 2.216,2.491007 -0.793,0.941989 -1.045,1.529989 -1.286,3.358987 -0.521,-0.152 -1.462,0.710999 -2.331,0.842999 0.337,0.889999 0.047,1.327999 0.058,2.349998 1.53,0.352999 2.616,0.930999 3.771,2.059998 0.455,-0.013 0.842,-0.14 1.198,-0.324 0.016,0.016 0.032,0.026 0.049,0.042 0.464,-0.013 0.857,-0.145 1.22,-0.334 0.005,0.005 0.01,0.008 0.015,0.013 0.583,-0.016 1.055,-0.216 1.491,-0.488999 0.448,-0.063 0.838,-0.223 1.196,-0.446 0.463,-0.064 0.864,-0.231 1.233,-0.464999 0.472,-0.071 0.881,-0.248 1.256,-0.493 0.443,-0.079 0.832,-0.25 1.189,-0.484 0.445,-0.078 0.834,-0.249999 1.193,-0.484999 0.443,-0.078 0.831,-0.25 1.188,-0.483 0.444,-0.078 0.833,-0.249999 1.192,-0.483999 0.444,-0.078 0.833,-0.25 1.192,-0.485 0.443,-0.079 0.83,-0.249999 1.188,-0.483999 0.456,-0.08 0.854,-0.257 1.22,-0.5 0.458,-0.086 0.857,-0.270999 1.227,-0.519999 0.413,-0.084 0.778,-0.252 1.117,-0.474 0.441,-0.082 0.829,-0.255999 1.187,-0.491999 0.439,-0.081 0.825,-0.252 1.181,-0.486 0.447,-0.08 0.838,-0.253989 1.198,-0.490989 0.444,-0.081 0.833,-0.255 1.192,-0.491 0.443,-0.08 0.831,-0.252999 1.189,-0.487999 0.444,-0.08 0.833,-0.253 1.191,-0.489 0.447,-0.08 0.838,-0.254009 1.198,-0.492009 0.443,-0.08 0.832,-0.254 1.19,-0.49 0.444,-0.08 0.833,-0.252999 1.191,-0.488999 0.446,-0.08 0.835,-0.254 1.195,-0.492 0.443,-0.08 0.832,-0.253999 1.19,-0.489999 0.318,-0.057 0.609,-0.161 0.877,-0.307 0.387,-0.028 0.731,-0.127 1.044,-0.282 0.004,0.003 0.008,0.006 0.012,0.01 0.465,-0.013 0.858,-0.144999 1.221,-0.332999 0.01,0.009 0.019,0.016 0.029,0.025 0.465,-0.013 0.858,-0.145 1.222,-0.334 0.01,0.01 0.02,0.016 0.029,0.025 0.465,-0.013 0.858,-0.145 1.221,-0.334 0.01,0.01 0.02,0.016 0.03,0.026 0.465,-0.013 0.858,-0.145 1.221,-0.333999 0.01,0.009 0.019,0.015 0.028,0.024 0.465,-0.014 0.859,-0.146 1.222,-0.335 0.01,0.01 0.02,0.016 0.03,0.026 0.465,-0.014 0.858,-0.146 1.222,-0.335 0.009,0.009 0.019,0.016 0.028,0.025 0.465,-0.013 0.858,-0.145 1.221,-0.333999 0.01,0.01 0.02,0.016 0.03,0.026 0.466,-0.013 0.859,-0.146 1.223,-0.336 0.009,0.009 0.019,0.015 0.028,0.024 0.465,-0.013 0.858,-0.145 1.221,-0.334 0.01,0.01 0.02,0.016 0.029,0.026 0.465,-0.013 0.859,-0.146 1.222,-0.335 0.01,0.01 0.02,0.016 0.03,0.026 0.465,-0.013 0.857,-0.144999 1.22,-0.333999 0.01,0.01 0.02,0.016 0.03,0.026 0.427,-0.012 0.796,-0.12 1.134,-0.285 0.017,0.016 0.033,0.026 0.049,0.042 0.391,-0.011 0.729,-0.108 1.043,-0.25 0.054,0.051 0.108,0.088 0.163,0.142 0.416,-0.012 0.775,-0.116 1.106,-0.273 0.06,0.055 0.119,0.096 0.178,0.155 0.414,-0.012 0.771,-0.116 1.101,-0.271999 0.06,0.056 0.12,0.098 0.18,0.156999 0.415,-0.012 0.773,-0.116 1.103,-0.272999 0.06,0.056 0.12,0.098 0.18,0.156999 0.415,-0.012 0.774,-0.115999 1.104,-0.272999 0.06,0.056 0.119,0.097 0.179,0.155 0.415,-0.012 0.773,-0.116 1.103,-0.273 0.06,0.056 0.12,0.098 0.18,0.157 0.415,-0.012 0.773,-0.116 1.103,-0.273 0.06,0.055 0.119,0.096 0.178,0.155 0.416,-0.012 0.775,-0.116 1.105,-0.273 0.06,0.056 0.12,0.097 0.18,0.156 0.415,-0.012 0.774,-0.116 1.104,-0.274 0.06,0.056 0.119,0.097 0.179,0.156 0.414,-0.012 0.772,-0.115 1.102,-0.272 0.06,0.056 0.12,0.097 0.18,0.156 0.416,-0.012 0.774,-0.116 1.105,-0.274 0.06,0.056 0.119,0.097 0.179,0.156 0.414,-0.012 0.772,-0.116 1.102,-0.272999 0.061,0.056 0.12,0.098 0.181,0.156999 0.415,-0.012 0.773,-0.115999 1.103,-0.272999 0.06,0.056 0.12,0.098 0.181,0.157 0.414,-0.012 0.772,-0.116 1.102,-0.273 0.06,0.056 0.12,0.098 0.181,0.157 0.415,-0.012 0.774,-0.116 1.104,-0.274 0.06,0.057 0.12,0.098 0.181,0.157 0.415,-0.012 0.772,-0.116 1.102,-0.274 0.06,0.057 0.121,0.098 0.181,0.158 0.415,-0.012 0.774,-0.116 1.104,-0.274 0.06,0.056 0.119,0.097 0.179,0.155 0.404,-0.011 0.753,-0.112 1.076,-0.264 0.063,0.059 0.126,0.103 0.19,0.165 0.381,-0.011 0.711,-0.106 1.018,-0.244 0.084,0.077 0.168,0.137 0.253,0.22 0.386,-0.011 0.719,-0.107 1.029,-0.248 0.086,0.078 0.171,0.139 0.257,0.223 0.385,-0.011 0.718,-0.107 1.028,-0.247 0.086,0.079 0.171995,0.14 0.257995,0.225 0.386,-0.011 0.72,-0.107 1.03001,-0.248 0.086,0.079 0.172,0.14 0.259,0.225 0.385004,-0.011 0.719004,-0.107 1.029004,-0.248 0.086,0.079 0.172,0.14 0.258,0.225 0.385,-0.011 0.718,-0.107 1.027,-0.247 0.086,0.078 0.172,0.14 0.259,0.225 0.385,-0.011 0.718,-0.107 1.028,-0.248 0.086,0.079 0.172,0.141 0.259,0.226 0.386,-0.011 0.721,-0.107 1.031,-0.249 0.086,0.079 0.172,0.14 0.258,0.225 0.384,-0.011 0.717,-0.107 1.026,-0.247999 0.086,0.079 0.172,0.139999 0.259,0.224999 0.386,-0.011 0.72,-0.107 1.03,-0.248999 0.086,0.079 0.171,0.139999 0.258,0.223999 0.386,-0.011 0.719,-0.107 1.029,-0.247999 0.086,0.078 0.171,0.138999 0.257,0.223999 0.386,-0.011 0.72,-0.107 1.029,-0.247999 0.086,0.078 0.172,0.139999 0.259,0.224999 0.385,-0.011 0.719,-0.107 1.028,-0.247999 0.086,0.078 0.172,0.139999 0.259,0.224999 0.385,-0.011 0.719,-0.107 1.028,-0.248999 0.086,0.079 0.172,0.139999 0.259,0.224999 0.386,-0.011 0.72,-0.106999 1.029,-0.248999 0.086,0.079 0.172,0.14 0.259,0.224999 0.384,-0.011 0.717,-0.106999 1.025,-0.247999 0.086,0.079 0.173,0.141 0.26,0.225999 0.386,-0.011 0.72,-0.107999 1.029,-0.249999 0.086,0.079 0.172,0.14 0.259,0.224999 0.388,-0.011 0.723,-0.107999 1.034,-0.250999 0.084,0.077 0.168,0.137 0.253,0.22 0.372,-0.011 0.695,-0.104 0.995,-0.237 0.097,0.087 0.193,0.158 0.291,0.252999 0.368,-0.011 0.687,-0.101999 0.984,-0.232999 0.1,0.09 0.201,0.164 0.302,0.261999 0.357,-0.01 0.667,-0.099 0.958,-0.222999 0.108,0.097 0.216,0.176 0.326,0.282999 0.335,-0.01 0.627,-0.091 0.902,-0.202999 0.125,0.11 0.25,0.202999 0.375,0.325999 0.336,-0.01 0.628,-0.092 0.904,-0.204 0.125,0.11 0.25,0.203 0.375,0.326 0.335,-0.01 0.627,-0.091 0.902,-0.204 0.125,0.11 0.25,0.204 0.376,0.327 0.336,-0.01 0.628,-0.091 0.904,-0.204 0.125,0.11 0.251,0.205 0.377,0.328 0.336,-0.01 0.629,-0.091 0.904,-0.204 0.125,0.11 0.25,0.203 0.375,0.326 0.336,-0.01 0.628,-0.092 0.904,-0.204 0.125,0.11 0.25,0.204 0.376,0.327 0.336,-0.01 0.628,-0.092 0.903,-0.205 0.125,0.11 0.25,0.204 0.376,0.327 0.336,-0.01 0.629,-0.092 0.905,-0.205 0.125,0.11 0.25,0.204 0.376,0.326999 0.335,-0.01 0.626,-0.091 0.901,-0.203999 0.125,0.11 0.25,0.204999 0.377,0.327999 0.336,-0.01 0.628,-0.092 0.903,-0.204999 0.125,0.109999 0.25,0.203999 0.377,0.327999 0.327,-0.009 0.611,-0.088 0.88,-0.196 0.132,0.115 0.264,0.215 0.396,0.345 0.326,-0.009 0.609,-0.088 0.877,-0.196 0.132,0.115 0.264,0.215 0.397,0.345 0.326,-0.009 0.609,-0.088 0.877,-0.196 0.132,0.115 0.265,0.216 0.398,0.346 0.325,-0.009 0.608,-0.088 0.875,-0.195 0.133,0.115 0.266,0.216 0.399,0.347 0.325,-0.009 0.608,-0.088 0.875,-0.196 0.133,0.116 0.266,0.217 0.4,0.347999 0.299,-0.009 0.561,-0.079 0.81,-0.172999 0.15,0.128999 0.301,0.244999 0.453,0.393999 0.298,-0.008 0.558,-0.078 0.806,-0.172 0.152,0.129 0.303,0.247 0.456,0.396 0.298,-0.008 0.559,-0.079 0.806,-0.173 0.152,0.13 2.773,0.797999 2.961,0.980999 1.492,-0.043 2.178,-1.410998 3.582,-1.986998 0.051,-0.633999 0.345,-1.461998 -0.391,-1.893998 0.857,0.466 1.288,-0.291 1.71,-0.733009 -1.335,-1.791998 -0.677,-3.542997 -2.027,-5.316995 z"
   id="path3953"
   inkscape:connector-curvature="0"
   style="clip-rule:evenodd;fill:#e6007e;fill-rule:evenodd"
   sodipodi:nodetypes="cccccccccsccccccccccccccccccccccccccccccccccccccccccccccccccccccccccccccccccccccccccccccccccccccccccccccccccccccccccccccccccccccccccccccccccccccccccccccccccccccccccccccccccccccccccccccccccccccccccc" />
<path
   d="m 120.54584,78.267152 c 0.83,0.451 0.993,-4.128996 -0.312,-5.844994 0.371,-0.907999 0.827,-1.919998 0.264,-2.847997 1.06,-1.625998 0.743,-2.721997 -0.268,-4.172996 -0.38,-0.036 0.493,-2.549997 0.234,-4.018996 -0.166,-0.936999 -1.284,-1.905998 -2.486,-2.038998 -0.457,-0.311 -0.997,-0.512999 -1.555,-0.539999 -0.646,-0.373 -1.426,-0.533 -2.163,-0.319 -0.44,-0.105 -0.897,-0.109 -1.342,0.027 -0.477,-0.104 -0.975,-0.105 -1.449,0.076 -0.072,0.025 -0.167,0.049 -0.249,0.074 -0.342,-0.021 -0.686,0.006 -1.019,0.134 -0.069,0.024 -0.16,0.047 -0.239,0.071 -0.344,-0.021 -0.692,0.005 -1.027,0.133999 -0.07,0.024 -0.161,0.048 -0.241,0.072 -0.345,-0.021 -0.693,0.007 -1.029,0.135 -0.089,0.031 -0.202,0.061 -0.306,0.091 -0.322,-0.01 -0.645,0.018 -0.957,0.137 -0.147,0.051 -0.32,0.101 -0.508,0.152 -0.25,0.013 -0.499,0.051 -0.741,0.144 -0.147,0.051 -0.318,0.101 -0.505,0.151 -0.25,0.013 -0.5,0.052 -0.743,0.144999 -0.146,0.051 -0.316,0.1 -0.501,0.149 -0.252,0.013 -0.504,0.052 -0.749,0.146 -0.144,0.05 -0.311,0.098 -0.492,0.147 -0.254,0.012 -0.508,0.051 -0.755,0.145 -0.145,0.05 -0.315,0.099 -0.499,0.149 -0.252,0.013 -0.504,0.052 -0.749,0.146 -0.145,0.05 -0.315004,0.099 -0.499004,0.148999 -0.253,0.013 -0.506,0.052 -0.75201,0.146 -0.145,0.05 -0.314,0.099 -0.497,0.149 -0.252995,0.013 -0.504995,0.052 -0.750995,0.146 -0.145,0.05 -0.313,0.099 -0.497,0.148 -0.253,0.013 -0.505,0.053 -0.751,0.146 -0.145,0.05 -0.314,0.099 -0.498,0.149 -0.253,0.013 -0.506,0.053 -0.752,0.146999 -0.143,0.05 -0.31,0.098 -0.49,0.146 -0.255,0.013 -0.51,0.053 -0.758,0.147 -0.145,0.05 -0.313,0.099 -0.495,0.148 -0.254,0.014 -0.507,0.053 -0.754,0.148 -0.138,0.048 -0.299,0.094 -0.472,0.142 -0.257,0.013 -0.513,0.052 -0.763,0.147 -0.164,0.057 -0.356,0.111999 -0.567,0.167999 -0.222,0.02 -0.443,0.068 -0.659,0.151 -0.684,0.237 -1.854,0.439 -2.877,0.902999 -0.433,0.126 -0.881,0.279 -1.301,0.478 -0.402,0.121 -0.814,0.264 -1.203,0.447999 -0.405,0.122 -0.819,0.267 -1.21,0.451 -0.403,0.121 -0.815,0.266 -1.205,0.449999 -0.4,0.12 -0.81,0.264 -1.197,0.446 -0.406,0.122 -0.822,0.267 -1.215,0.453 -0.4,0.119999 -0.808,0.262999 -1.195,0.444999 -0.407,0.122 -0.824,0.268 -1.217,0.454 -0.4,0.121 -0.809,0.263999 -1.196,0.445999 -0.402,0.121 -0.813,0.265 -1.202,0.448 -0.406,0.122 -0.821,0.267 -1.213,0.451999 -0.403,0.121 -0.814,0.265 -1.204,0.449 -0.402,0.121 -0.813,0.265 -1.202,0.447999 -0.408,0.123 -0.827,0.269 -1.221,0.456 -0.456,0.137 -0.922,0.305 -1.354,0.525999 -0.424,0.134 -0.852,0.299 -1.249,0.507 -0.403,0.13 -0.809,0.288 -1.186,0.484999 -0.405,0.13 -0.812,0.288 -1.19,0.486 -0.407,0.131 -0.816,0.29 -1.197,0.489999 -0.403,0.13 -0.808,0.287 -1.185,0.485 -0.417,0.134 -0.835,0.298 -1.223,0.505 -0.521,0.169999 -1.044,0.385999 -1.501,0.677999 -0.4,0.147 -0.791,0.326999 -1.143,0.549999 -0.408,0.149 -0.807,0.332 -1.166,0.561 -0.403,0.147 -0.796,0.327999 -1.151,0.552999 -0.405,0.148 -0.8,0.329 -1.158,0.555 -0.408,0.148999 -0.807,0.331999 -1.167,0.560999 -0.402,0.147 -0.795,0.327 -1.15,0.550999 -0.408,0.149 -0.808,0.332 -1.167,0.561 -0.404,0.148 -0.799,0.329 -1.155,0.554999 -0.405,0.148 -0.802,0.329 -1.16,0.556 -0.408,0.149 -0.806,0.331999 -1.166,0.559999 -0.401,0.147 -0.794,0.327 -1.148,0.551 -0.41,0.15 -0.811,0.332999 -1.172,0.562999 -0.403,0.147 -0.796,0.328 -1.152,0.552 -0.405,0.147999 -0.801,0.329999 -1.159,0.555999 -0.408,0.149 -0.806,0.332 -1.165,0.559999 -0.404,0.148 -0.799,0.329 -1.156,0.554 -0.407,0.149 -0.805,0.332 -1.164,0.558999 -0.405,0.148 -0.801,0.33 -1.158,0.556 -0.401,0.147 -0.793,0.325999 -1.148,0.549999 -0.521,0.191 -1.027,0.436 -1.452,0.763999 -0.441,0.187 -0.859,0.42 -1.212,0.717 -0.344,0.153 -0.664,0.342999 -0.954,0.563999 -0.772,0.429 -8.767,4.889995 -17.672,10.949989 -9.371,6.375548 -15.379,11.206538 -15.379,11.206538 l 0.005,0.007 c -0.513,0.382 -0.91900003,0.873 -1.07900003,1.55 0.404,1.461 0.83700003,2.594 0.68800003,4.58599 0.703,0.803 1.854,0.643 2.51,0.707 -0.624,1.09 -2.459,1.028 -2.426,2.746 -0.139,0.394 0.8,0.783 0.8,1.318 0.003,1.034 -0.097,0.476 0.609,1.331 0.125,0.152 -0.114,0.625 0.019,0.766 0.286,0.311 0.599,0.051 0.971,0.554 0.573,0.771 0.743,2.18699 2.17,2.44099 -0.687,0.816 0.458,-0.054 0.241,1.301 -0.075,0.021 -0.151,0.043 -0.225,0.055 0.035,0.093 0.06,0.18 0.083,0.264 -0.365,0.191 -0.757,0.39 -1.136,0.447 0.024,0.063 0.039,0.121 0.056,0.18 -0.367,0.192 -0.761,0.394 -1.144,0.452 0.329,0.872 0.046,1.302 0.057,2.3 1.498,0.346 1.146,2.331 2.276,3.436 0.749,-0.021 1.312,-0.349 1.851,-0.754 0.5160002,-0.171 0.9560002,-0.478 1.3880002,-0.824 0.399,-0.188 0.7559998,-0.455 1.1119998,-0.742 0.377,-0.186 0.717,-0.443 1.057,-0.717 0.379,-0.187 0.721,-0.447 1.064,-0.723 0.377,-0.187 0.717,-0.444 1.058,-0.719 0.377,-0.187 0.718,-0.445 1.059,-0.72 0.484,-0.241 0.907,-0.597 1.351,-0.955 0.068,-0.042 0.137,-0.083 0.203,-0.129 0.09,-0.045 0.174,-0.097 0.27,-0.136 0.002,-0.022 0.006,-0.046 0.008,-0.069 0.117,-0.09 0.235,-0.181 0.352,-0.276 0.22,-0.141 0.449,-0.272 0.703,-0.377 0.004,-0.047 0.011,-0.098 0.017,-0.147 0.102,-0.079 0.204,-0.159 0.305,-0.241 0.222,-0.143 0.453,-0.276 0.71,-0.382 0.004,-0.047 0.011,-0.098 0.017,-0.147 0.104,-0.081 0.208,-0.163 0.312,-0.247 0.22,-0.141 0.449,-0.272 0.703,-0.377 0.004,-0.047 0.011,-0.097 0.017,-0.14599 0.104,-0.081 0.208,-0.163 0.312,-0.247 0.22,-0.141 0.449,-0.272 0.703,-0.377 0.004,-0.047 0.011,-0.098 0.017,-0.147 0.102,-0.079 0.204,-0.159 0.305,-0.241 0.222,-0.143 0.453,-0.276 0.71,-0.382 0.004,-0.047 0.011,-0.098 0.017,-0.147 0.104,-0.081 0.208,-0.163 0.312,-0.247 0.22,-0.141 0.449,-0.272 0.703,-0.377 0.004,-0.047 0.011,-0.097 0.017,-0.146 0.104,-0.081 0.208,-0.163 0.312,-0.247 0.22,-0.141 0.449,-0.272 0.703,-0.377 0.004,-0.047 0.011,-0.098 0.017,-0.147 0.102,-0.079 0.204,-0.159 0.305,-0.241 0.222,-0.143 0.453,-0.276 0.71,-0.382 0.004,-0.05 0.012,-0.103 0.018,-0.154 0.054,-0.042 0.109,-0.084 0.164,-0.127 0.208,-0.1 0.403,-0.226 0.595,-0.36 0.085,-0.042 0.165,-0.091 0.255,-0.128 0.002,-0.021 0.005,-0.044 0.007,-0.065 0.027,-0.021 0.054,-0.039 0.081,-0.06 0.393,-0.167 0.746,-0.407 1.091,-0.679 0.393,-0.167 0.746,-0.405 1.09,-0.677 0.394,-0.167 0.748,-0.405 1.093,-0.676 0.398,-0.168 0.756,-0.409 1.104,-0.684 0.393,-0.167 0.747,-0.405 1.092,-0.677 0.397,-0.168 0.754,-0.409 1.103,-0.684 0.392,-0.167 0.745,-0.405 1.09,-0.676 0.396,-0.167 0.752,-0.408 1.1,-0.68199 0.392,-0.167 0.745,-0.404 1.089,-0.675 0.397,-0.167 0.754,-0.407 1.101,-0.682 0.396,-0.167 0.751,-0.407 1.098,-0.681 0.394,-0.167 0.749,-0.406 1.094,-0.678 0.396,-0.167 0.752,-0.408 1.1,-0.682 0.394,-0.167 0.747,-0.406 1.092,-0.678 0.353,-0.148 0.674,-0.356 0.984,-0.595 0.306,-0.114 0.589,-0.271 0.856,-0.461 0.429,-0.107 0.799,-0.318 1.152,-0.57 0.431,-0.107 0.802,-0.318 1.156,-0.57 0.43,-0.107 0.8,-0.317 1.154,-0.569 0.433,-0.106 0.806,-0.318 1.161,-0.571 0.43,-0.106 0.8,-0.317 1.153,-0.568 0.432,-0.106 0.804,-0.316 1.158,-0.569 0.433,-0.107 0.805,-0.319 1.161,-0.573 0.43,-0.106 0.799,-0.316 1.152,-0.568 0.434,-0.106 0.807,-0.31699 1.162,-0.57099 0.43,-0.106 0.8,-0.316 1.153,-0.568 0.431,-0.106 0.802,-0.317 1.156,-0.569 0.432,-0.106 0.805,-0.317 1.16,-0.57 0.43,-0.106 0.8,-0.316 1.154,-0.568 0.433,-0.106 0.806,-0.317 1.161,-0.571 0.431,-0.106 0.801,-0.317 1.154,-0.569 0.432,-0.106 0.803,-0.316 1.156,-0.569 0.433,-0.106 0.806,-0.318 1.161,-0.572 0.432,-0.10655 0.804,-0.318549 1.159,-0.573549 0.436,-0.108 0.81,-0.323 1.167,-0.58 0.381,-0.097 0.715,-0.272999 1.032,-0.488999 0.436,-0.085 0.816,-0.265 1.169,-0.504 0.445,-0.083 0.832,-0.263999 1.189,-0.506999 0.442,-0.083 0.827,-0.264 1.184,-0.505 0.443,-0.083 0.829,-0.262999 1.186,-0.504999 0.445,-0.083 0.832,-0.265 1.19,-0.508 0.437,-0.082 0.817,-0.256999 1.169,-0.493999 0.421,-0.075 0.79,-0.238 1.129,-0.46 0.449,-0.067 0.838,-0.233999 1.195,-0.466999 0.453,-0.066 0.845,-0.235 1.205,-0.47 0.451,-0.066 0.842,-0.234999 1.201,-0.468999 0.451,-0.066 0.841,-0.234 1.2,-0.468 0.452,-0.066 0.843,-0.233999 1.202,-0.467999 0.453,-0.066 0.845,-0.235 1.205,-0.47 0.45,-0.066 0.839,-0.233 1.197,-0.466999 0.454,-0.066 0.846,-0.235 1.206,-0.47 0.452,-0.066 0.842,-0.234 1.201,-0.468999 0.452,-0.066 0.843,-0.234 1.201,-0.469 0.452,-0.066 0.843,-0.234 1.202,-0.468999 0.452,-0.065 0.843,-0.234 1.202,-0.469 0.452,-0.065 0.843,-0.234 1.202,-0.468999 0.448,-0.065 0.835,-0.231 1.191,-0.462 0.364,-0.051 0.688,-0.169 0.986,-0.337 0.452,-0.019 0.833,-0.155 1.185,-0.348999 0.004,0.004 0.009,0.007 0.013,0.012 0.473,-0.014 0.867,-0.158 1.231,-0.36 0.005,0.005 0.01,0.008 0.016,0.014 0.473,-0.014 0.866,-0.159 1.229,-0.361 0.006,0.005 0.012,0.009 0.018,0.015 0.474,-0.014 0.867,-0.158999 1.231,-0.361999 0.006,0.005 0.012,0.009 0.018,0.015 0.473,-0.014 0.866,-0.159 1.229,-0.361 0.006,0.005 0.01099,0.009 0.01699,0.015 0.473,-0.014 0.86501,-0.16 1.22901,-0.362 0.006,0.006 0.012,0.01 0.018,0.016 0.472999,-0.014 0.866999,-0.159999 1.229999,-0.363999 0.006,0.006 0.013,0.011 0.02,0.017 0.473,-0.014 0.865,-0.16 1.228,-0.363 0.006,0.006 0.013,0.01 0.019,0.017 0.471,-0.014 0.862,-0.159 1.225,-0.362 0.007,0.007 0.014,0.011 0.021,0.018 0.473,-0.014 0.865,-0.160999 1.229,-0.364999 0.007,0.007 0.014,0.011 0.021,0.018 0.472,-0.014 0.864,-0.161 1.227,-0.365 0.007,0.007 0.014,0.011 0.021,0.018 0.473,-0.014 0.864,-0.161 1.227,-0.365 0.006,0.007 0.013,0.011 0.02,0.018 0.469,-0.013 0.859,-0.158999 1.22,-0.361999 0.014,0.013 0.027,0.022 0.041,0.036 0.469,-0.014 0.857,-0.159 1.217,-0.361 0.017,0.016 0.033,0.027 0.049,0.043 0.467,-0.013 0.855,-0.159 1.214,-0.361 0.017,0.016 0.033,0.027 0.05,0.043 0.468,-0.014 0.856,-0.159999 1.215,-0.362999 0.017,0.016 0.033,0.027 0.05,0.043 0.46,-0.013 0.842,-0.155 1.195,-0.354 0.034,0.032 0.067,0.055 0.102,0.088 0.459,-0.013 0.841,-0.156 1.193,-0.355 0.037,0.035 0.073,0.06 0.11,0.096 0.44,-0.013 0.807,-0.146 1.146,-0.332999 0.08,0.072 0.158,0.128999 0.238,0.206999 0.434,-0.012 0.795,-0.144999 1.129,-0.329999 0.094,0.084 0.188,0.152 0.282,0.244999 1.442,-0.041 2.105,-1.364998 3.464,-1.922998 0.042,-0.611999 0.327,-1.412998 -0.385,-1.829998 z"
   id="path3955"
   inkscape:connector-curvature="0"
   style="clip-rule:evenodd;fill:#e6007e;fill-rule:evenodd"
   sodipodi:nodetypes="ccccccccccccccccccccccccccccccccccccccccccccccccccccccccccccccccccccccccccccccccccccccccccccccccccccccccccccccccccccccccccccccccccccccccccccccccccccccccccccccccccccccccccccccccccccccccccccccccccccccccccccccccccccccccccccccccccccccccccccccccccccccccc" />
<path
   d="m 151.26484,47.527183 c 0.384,-0.937999 0.855,-1.981998 0.273,-2.939997 1.093,-1.679998 0.766,-2.810997 -0.277,-4.308996 -0.146,-0.014 -0.278,0 -0.417,0.002 -0.162,-0.453999 -0.42,-0.915999 -0.761,-1.413988 0.609,-0.896999 1.653,-1.410999 1.42,-2.738008 -0.104,-0.589999 -0.58,-1.188998 -1.211,-1.602998 -0.005,-0.042 0.001,-0.077 -0.006,-0.121 -0.188,-1.076999 -1.531,-2.182998 -2.92,-2.228998 -2.691,-0.738999 -8.989,-0.425999 -12.476,-0.183999 -6.701,0.368999 -9.223,0.462999 -10.949,0.645999 -0.439,-0.077 -0.209,-0.019 -0.645,0.13 -0.433,-0.069 -0.877,-0.041 -1.305,0.11 -0.445,-0.067 -0.902,-0.036 -1.339,0.130999 -0.069,0.024 -0.146,0.048 -0.225,0.071 -0.348,-0.016 -0.698,0.013 -1.037,0.143 -0.138,0.048 -0.299,0.095 -0.472,0.142 -0.262,0.013 -0.524,0.053 -0.778,0.15 -0.14,0.048 -0.303,0.096 -0.478,0.144 -0.261,0.013 -0.521,0.054 -0.773,0.15 -0.138,0.048 -0.3,0.095 -0.472,0.142 -0.263,0.012 -0.525,0.052 -0.781,0.149999 -0.14,0.049 -0.304,0.096 -0.479,0.144 -0.26,0.014 -0.519,0.054 -0.771,0.151 -0.138,0.048 -0.298,0.094 -0.471,0.142 -0.264,0.013 -0.527,0.052 -0.783,0.15 -0.138,0.048 -0.298,0.094 -0.47,0.141 -0.263,0.013 -0.525,0.053 -0.78,0.151 -0.139,0.048 -0.3,0.095 -0.473,0.142999 -0.264,0.013 -0.526,0.053 -0.782,0.15 -0.138,0.048 -0.298,0.094 -0.469,0.142 -0.264,0.013 -0.526,0.053 -0.782,0.15 -0.139,0.048 -0.301,0.095 -0.475,0.143 -0.262,0.013 -0.522,0.054 -0.777,0.151 -0.138,0.048 -0.298,0.094 -0.469,0.141 -0.263,0.013 -0.526,0.053 -0.782,0.150999 -0.138,0.048 -0.299,0.095 -0.471,0.142 -0.263,0.013 -0.525,0.054 -0.78,0.151 -0.138,0.048 -0.298,0.094 -0.469,0.141 -0.264,0.013 -0.527,0.053 -0.783,0.151 -0.138,0.048 -0.299,0.095 -0.471,0.142 -0.263,0.013 -0.525,0.054 -0.781,0.150999 -0.139,0.048 -0.301,0.095 -0.474,0.14301 -0.262,0.014 -0.523,0.054 -0.778,0.151 -0.138,0.048 -0.299,0.094 -0.471,0.142 -0.263,0.013 -0.525,0.054 -0.781,0.151 -0.139,0.048 -0.3,0.095 -0.473,0.142 -0.263004,0.014 -0.524004,0.054 -0.779004,0.152 -0.134,0.046 -0.29001,0.092 -0.45701,0.137999 -0.264,0.013 -0.528,0.053 -0.784995,0.151 -0.279,0.097 -0.64,0.188 -1.036,0.293 -0.063,0.019 -0.128,0.02 -0.19,0.044 -0.044,0.015 -0.095,0.03 -0.143,0.045 -0.155,0.042 -0.312,0.088 -0.473,0.136 -0.568,0.152 -1.266,0.320999 -1.938,0.578989 -0.39,0.105 -0.803,0.229 -1.208,0.383 -0.4,0.108 -0.826,0.235 -1.243,0.394999 -0.391,0.106 -0.805,0.229 -1.21,0.384 -0.399,0.108 -0.824,0.234 -1.24,0.394 -0.394,0.107 -0.811,0.230999 -1.22,0.387999 -0.394,0.106 -0.812,0.231 -1.222,0.387 -0.397,0.107 -0.819,0.233 -1.232,0.390999 -0.392,0.106 -0.808,0.23 -1.215,0.385 -0.398,0.108 -0.822,0.234 -1.237,0.393 -0.397,0.107 -0.819,0.232999 -1.232,0.391999 -0.396,0.107 -0.816,0.233 -1.228,0.391 -0.392,0.106 -0.808,0.23 -1.215,0.386 -0.456,0.123999 -0.944,0.268999 -1.414,0.461999 -0.396,0.111 -0.812,0.241 -1.212,0.406 -0.395,0.11 -0.807,0.238999 -1.207,0.401999 -0.4,0.112 -0.82,0.243 -1.226,0.409 -0.397,0.111 -0.813,0.241 -1.216,0.405999 -0.406,0.113 -0.832,0.246 -1.243,0.416 -0.396,0.111 -0.811,0.241 -1.211,0.405 -0.392,0.11 -0.8,0.237999 -1.197,0.398999 -0.403,0.112 -0.825,0.244 -1.233,0.411 -0.393,0.11 -0.804,0.239 -1.203,0.399999 -0.398,0.111 -0.814,0.24 -1.219,0.404 -0.39,0.109 -0.797,0.235 -1.193,0.395 -0.407,0.113 -8.58,2.515997 -16.121,5.574994 -7.541,3.058997 -11.781,4.622995 -17.226,7.122993 -5.445,2.499997 -16.07,7.765992 -16.401,8.021992 -0.403,0.171 -7.354,4.141996 -7.64,4.337996 -1.083,0.418999 -2.092,1.068998 -2.373,2.261997 0.409,1.480999 3.101,-0.808999 2.95,1.212999 0.7150002,0.815999 -3.203,1.998998 -2.538,2.061998 -0.633,1.106999 0.336,3.137997 0.371,4.878995 -0.141,0.399 0.812,0.793999 0.811,1.337999 0.004,1.047999 -0.098,0.480999 0.619,1.350998 0.126,0.153 -0.116,0.633 0.02,0.775 0.289,0.314999 0.606,0.052 0.9830002,0.561999 0.583,0.781999 0.754,2.218998 2.2009998,2.477998 -0.7419998,0.879999 -1.0059998,1.461998 -1.2349998,3.041997 -0.026,0.005 -0.052,0.015 -0.078,0.019 0.021,0.057 0.034,0.106999 0.05,0.160999 -0.066,0.035 -0.132,0.069 -0.201,0.104 -0.238,0.019 0.885,0.163 0.562,0.331 -0.039,0.008 -0.078,0.022 -0.117,0.028 0.004,0.01 0.005,0.018 0.009,0.028 -0.374,0.196 1.8419998,0.077 1.4519998,0.135 0.334,0.884999 -1.4379998,1.999998 -1.4279998,3.013997 1.5209998,0.350999 0.048,0.571999 1.1949998,1.693998 0.221,-0.006 0.422,-0.046 0.615,-0.1 0.25,0.29 0.298,0.1 0.298,0.1 0,0 0.583,-0.459999 7.417,-4.293996 6.319,-3.544996 14.719,-7.431992 15.479,-7.783992 0.012,-0.006 0.025,-0.011 0.037,-0.017 0.043,-0.02 0.066,-0.031 0.066,-0.031 v -0.009 c 0.162,-0.083 0.32,-0.173 0.472,-0.278999 0.435,-0.1 0.812,-0.299 1.167,-0.546 0.435,-0.1 0.813,-0.298 1.169,-0.545999 0.434,-0.1 0.81,-0.298 1.165,-0.545 0.436,-0.1 0.813,-0.299 1.169,-0.546999 0.411,-0.095 0.771,-0.275 1.11,-0.505 0.361,-0.079 0.684,-0.226 0.985,-0.413999 0.448,-0.063 0.838,-0.226 1.196,-0.453 0.452,-0.062 0.844,-0.226 1.204,-0.452999 0.451,-0.062 0.843,-0.225 1.203,-0.452 0.455,-0.062 0.849,-0.226 1.211,-0.455 0.452,-0.063 0.844,-0.225999 1.204,-0.453999 0.451,-0.062 0.843,-0.225 1.203,-0.452 0.454,-0.062 0.848,-0.225999 1.21,-0.454999 0.452,-0.062 0.844,-0.226 1.204,-0.453 0.453,-0.062 0.846,-0.226 1.206,-0.452999 0.451,-0.062 0.843,-0.225 1.203,-0.452 0.454,-0.062 0.847,-0.225 1.208,-0.453999 0.453,-0.062 0.846,-0.226 1.207,-0.454 0.452,-0.062 0.844,-0.225 1.205,-0.453 0.433,-0.06 0.812,-0.211999 1.159,-0.425999 0.427,-0.052 0.799,-0.195 1.142,-0.397 0.458,-0.043 0.852,-0.194999 1.213,-0.409999 0.459,-0.042 0.854,-0.194 1.215,-0.409 0.465,-0.042 0.863,-0.196 1.229,-0.413999 0.46,-0.043 0.855,-0.195 1.218,-0.411 0.458,-0.042 0.853,-0.194 1.214,-0.408 0.466,-0.042 0.865,-0.195999 1.231,-0.414999 0.458,-0.043 0.853,-0.194 1.214,-0.409 0.463,-0.042 0.86,-0.195 1.225,-0.411999 0.463,-0.043 0.86,-0.197 1.224,-0.415 0.471,-0.044 0.873,-0.203 1.242,-0.426 0.457,-0.047 0.851,-0.200999 1.212,-0.418999 0.462,-0.047 0.86,-0.204 1.224,-0.425 0.46,-0.048 0.855,-0.204 1.218,-0.423999 0.458,-0.048 0.852,-0.203 1.213,-0.421 0.461,-0.047 0.857,-0.203 1.22,-0.422999 0.458,-0.047 0.853,-0.202 1.214,-0.42 0.462,-0.046 0.86,-0.203 1.224,-0.424 0.46,-0.047 0.855,-0.202999 1.218,-0.422999 0.439,-0.045 0.82,-0.19 1.169,-0.396 0.463,-0.039 0.859,-0.19 1.223,-0.404999 0.463,-0.039 0.858,-0.19 1.222,-0.405 0.464,-0.038 0.86,-0.189 1.224,-0.404 0.463,-0.038 0.859,-0.188999 1.223,-0.403999 0.464,-0.038 0.861,-0.189 1.225,-0.404 0.462,-0.038 0.857,-0.189 1.22,-0.401999 0.466,-0.038 0.864,-0.19 1.229,-0.406 0.463,-0.038 0.859,-0.19 1.223,-0.404 0.463,-0.038 0.858,-0.188999 1.221,-0.402999 0.468,-0.037 0.866,-0.19 1.232,-0.407 0.46,-0.038 0.854,-0.188 1.215,-0.400999 0.466,-0.037 0.864,-0.189 1.229,-0.405 0.414,-0.033 0.773995,-0.156 1.103995,-0.335 0.45401,-0.015 0.83801,-0.145999 1.19301,-0.332999 0.012,0.011 0.023,0.019 0.035,0.03 0.464004,-0.014 0.854004,-0.149 1.215004,-0.341 0.012,0.012 0.024,0.02 0.037,0.032 0.464,-0.014 0.854,-0.148 1.214,-0.341 0.013,0.012 0.025,0.021 0.038,0.033 0.463,-0.014 0.854,-0.148 1.214,-0.340999 0.012,0.012 0.024,0.02 0.037,0.032 0.464,-0.014 0.854,-0.149 1.215,-0.342 0.012,0.012 0.024,0.02 0.037,0.032 0.463,-0.014 0.853,-0.148 1.213,-0.341 0.013,0.012 0.025,0.021 0.038,0.033 0.463,-0.013 0.853,-0.148 1.213,-0.340999 0.013,0.013 0.025,0.021 0.038,0.033 0.464,-0.013 0.854,-0.148 1.213,-0.341 0.013,0.012 0.025,0.021 0.038,0.033 0.464,-0.013 0.854,-0.148 1.213,-0.341 0.013,0.012 0.025,0.021 0.038,0.033 0.463,-0.013 0.853,-0.148 1.212,-0.340999 0.013,0.012 0.026,0.021 0.039,0.033 0.464,-0.013 0.854,-0.148998 1.215,-0.342998 0.013,0.013 0.026,0.021 0.039,0.034 0.463,-0.014 0.852,-0.149 1.212,-0.342 0.013,0.013 0.026,0.021 0.039,0.034 0.463,-0.014 0.853,-0.149 1.212,-0.343 0.014,0.013 0.027,0.022 0.041,0.035 0.464,-0.014 0.853,-0.149999 1.213,-0.342999 0.012,0.012 0.024,0.02 0.037,0.032 0.463,-0.014 0.853,-0.149 1.212,-0.343 0.014,0.013 0.027,0.022 0.041,0.035 0,0 6.095,-0.707999 17.055,-1.638998 9.29,-0.79 12.595,-0.792 13.39,-0.774 0.145,0.123 0.29,0.236 0.436,0.379 1.491,-0.042 2.175,-1.407999 3.578,-1.983998 0.05,-0.631999 0.344,-1.458998 -0.391,-1.889998 0.856,0.464999 1.287,-0.292 1.708,-0.731999 -1.341,-1.780999 -0.683,-3.529997 -2.032,-5.300997 z"
   id="path3957"
   inkscape:connector-curvature="0"
   style="clip-rule:evenodd;fill:#e6007e;fill-rule:evenodd"
   sodipodi:nodetypes="cccccccccccccccccccccccccccccccccccccccccccccccccccccccccccccccccccccccccccccccssccccccccccccccccccccccccccccccccccccccccccccccccccccccccccccccccccccccccccccccccccccccccccccccccccccccccccccccccccccccc" />
<polygon
   points="426.543,242.807 433.695,242.807 433.695,244.393 426.543,244.393 426.543,254.237 424.742,254.237 424.742,232.897 434.492,232.897 434.492,234.491 426.543,234.491 "
   id="polygon3959"
   transform="translate(-182.85616,-168.54769)" />
<g
   id="g3965"
   transform="translate(-182.85616,-168.54769)">
	<path
   d="m 446.098,234.491 h -2.441 v 8.129 h 2.473 c 2.965,0 4.246,-1.801 4.246,-4.035 -10e-4,-2.051 -1.04,-4.094 -4.278,-4.094 m 5.23,19.746 -5.109,-10.059 h -2.562 v 10.059 h -1.812 v -21.34 h 4.434 c 4.16,0 6.051,2.391 6.051,5.477 0,3.145 -1.984,4.855 -4.273,5.562 l 5.469,10.301 z"
   id="path3961"
   inkscape:connector-curvature="0" />
	<path
   d="m 470.691,246.592 c -0.918,-2.965 -2.012,-6.234 -3.117,-9.32 -0.27,-0.766 -0.551,-1.715 -0.793,-2.445 h -0.035 c -0.238,0.762 -0.547,1.711 -0.793,2.445 -1.039,2.992 -2.105,6.266 -3.023,9.32 z m 2.145,7.645 c -0.523,-1.988 -1.105,-4.129 -1.688,-6.113 h -8.68 c -0.578,1.957 -1.188,4.156 -1.711,6.113 h -1.922 c 2.172,-7.77 4.582,-14.949 7.117,-21.34 h 1.746 c 2.84,7.125 5.164,14.277 7.152,21.34 z"
   id="path3963"
   inkscape:connector-curvature="0" />
</g>
<polygon
   points="481.844,232.901 484.5,232.901 493.703,251.393 493.766,251.393 493.766,232.901 495.508,232.901 495.508,254.237 493.121,254.237 483.617,235.163 483.586,235.163 483.586,254.237 481.844,254.237 "
   id="polygon3967"
   transform="translate(-182.85616,-168.54769)" />
<g
   id="g3971"
   transform="translate(-182.85616,-168.54769)">
	<path
   d="m 513.664,254.237 -7.305,-11.188 -1.316,1.402 v 9.785 h -1.801 V 232.9 h 1.801 v 9.508 c 2.781,-3.121 5.656,-6.332 8.402,-9.508 h 2.418 l -8.285,8.895 8.352,12.441 h -2.266 z"
   id="path3969"
   inkscape:connector-curvature="0" />
</g>
<polygon
   points="524.598,242.807 531.75,242.807 531.75,244.393 524.598,244.393 524.598,254.237 522.793,254.237 522.793,232.897 532.547,232.897 532.547,234.491 524.598,234.491 "
   id="polygon3973"
   transform="translate(-182.85616,-168.54769)" />
<g
   id="g3979"
   transform="translate(-182.85616,-168.54769)">
	<path
   d="m 552.414,246.413 c 0,5.41 -2.75,8.098 -6.941,8.098 -4.066,0 -6.816,-2.598 -6.816,-7.73 v -13.883 h 1.805 v 13.699 c 0,4.277 1.957,6.359 5.102,6.359 3.148,0 5.109,-2.082 5.109,-6.359 v -13.699 h 1.742 v 13.515 z"
   id="path3975"
   inkscape:connector-curvature="0" />
	<path
   d="m 564.336,234.491 h -2.445 v 8.129 h 2.477 c 2.961,0 4.246,-1.801 4.246,-4.035 -10e-4,-2.051 -1.04,-4.094 -4.278,-4.094 m 5.226,19.746 -5.105,-10.059 h -2.566 v 10.059 h -1.805 v -21.34 h 4.43 c 4.156,0 6.055,2.391 6.055,5.477 0,3.145 -1.988,4.855 -4.281,5.562 l 5.473,10.301 z"
   id="path3977"
   inkscape:connector-curvature="0" />
</g>
<polygon
   points="583.195,254.237 581.359,254.237 581.359,234.456 575.34,234.456 575.34,232.901 589.215,232.901 589.215,234.456 583.195,234.456 "
   id="polygon3981"
   transform="translate(-182.85616,-168.54769)" />
<g
   id="g3985"
   transform="translate(-182.85616,-168.54769)">
	<path
   d="m 438.312,284.549 c 0,5.406 -2.75,8.1 -6.938,8.1 -4.07,0 -6.82,-2.6 -6.82,-7.736 v -13.875 h 1.805 v 13.695 c 0,4.277 1.957,6.355 5.105,6.355 3.145,0 5.098,-2.078 5.098,-6.355 v -13.695 h 1.75 z"
   id="path3983"
   inkscape:connector-curvature="0" />
</g>
<polygon
   points="445.891,271.038 448.551,271.038 457.754,289.534 457.812,289.534 457.812,271.038 459.555,271.038 459.555,292.372 457.172,292.372 447.664,273.299 447.633,273.299 447.633,292.372 445.891,292.372 "
   id="polygon3987"
   transform="translate(-182.85616,-168.54769)" />
<rect
   x="285.52679"
   y="102.49356"
   width="1.801"
   height="21.330999"
   id="rect3989" />
<g
   id="g3993"
   transform="translate(-182.85616,-168.54769)">
	<path
   d="m 492.855,271.038 c -2.02,7.152 -4.371,14.277 -7.152,21.334 h -1.773 c -2.844,-7.12 -5.164,-14.213 -7.156,-21.334 h 2.023 c 1.469,5.746 3.297,11.43 5.258,16.965 l 0.793,2.445 h 0.031 l 0.824,-2.414 c 1.863,-5.414 3.727,-11.219 5.195,-16.996 z"
   id="path3991"
   inkscape:connector-curvature="0" />
</g>
<polygon
   points="501.25,280.448 508.465,280.448 508.465,282.042 501.25,282.042 501.25,290.783 509.594,290.783 509.594,292.372 499.445,292.372 499.445,271.038 509.445,271.038 509.445,272.624 501.25,272.624 "
   id="polygon3995"
   transform="translate(-182.85616,-168.54769)" />
<g
   id="g4001"
   transform="translate(-182.85616,-168.54769)">
	<path
   d="m 520.664,272.624 h -2.445 v 8.137 h 2.473 c 2.969,0 4.254,-1.809 4.254,-4.039 -10e-4,-2.048 -1.04,-4.098 -4.282,-4.098 m 5.227,19.748 -5.102,-10.057 h -2.57 v 10.057 h -1.805 v -21.334 h 4.43 c 4.16,0 6.055,2.383 6.055,5.473 0,3.145 -1.984,4.855 -4.277,5.562 l 5.465,10.299 z"
   id="path3997"
   inkscape:connector-curvature="0" />
	<path
   d="m 536.648,292.676 c -1.254,0 -2.625,-0.21 -3.91,-0.609 l 0.336,-1.713 c 1.285,0.425 2.566,0.675 4.004,0.675 2.66,0 4.219,-1.621 4.219,-4.066 0,-2.477 -1.711,-3.52 -4.125,-4.984 -2.75,-1.617 -4.25,-3.086 -4.25,-5.867 0,-3.117 2.324,-5.352 5.961,-5.352 0.977,0 2.32,0.184 3.148,0.461 l -0.336,1.59 c -0.918,-0.273 -2.016,-0.461 -3.031,-0.461 -2.594,0 -3.82,1.684 -3.82,3.605 0,2.418 1.68,3.484 4.008,4.898 2.934,1.738 4.402,3.262 4.402,5.957 0,3.579 -2.508,5.866 -6.606,5.866"
   id="path3999"
   inkscape:connector-curvature="0" />
</g>
<rect
   x="367.75281"
   y="102.49356"
   width="1.8049999"
   height="21.330999"
   id="rect4003" />
<polygon
   points="565.438,292.372 563.602,292.372 563.602,272.592 557.578,272.592 557.578,271.038 571.453,271.038 571.453,272.592 565.438,272.592 "
   id="polygon4005"
   transform="translate(-182.85616,-168.54769)" />
<g
   id="g4011"
   transform="translate(-182.85616,-168.54769)">
	<path
   d="m 589.305,271.038 c -1.859,3.883 -3.938,7.883 -6.723,12.043 v 9.292 h -1.805 v -9.292 c -2.598,-3.91 -4.801,-7.977 -6.723,-12.043 h 2.047 c 1.586,3.543 3.578,7.367 5.719,10.609 1.984,-3.273 4.062,-7.277 5.469,-10.609 z"
   id="path4007"
   inkscape:connector-curvature="0" />
	<path
   d="m 315.618,310.48 c -4.766,0 -6.633,4.344 -6.633,9.203 0,5.465 1.955,9.535 6.939,9.535 4.828,0 6.633,-4.402 6.633,-9.199 10e-4,-5.472 -1.984,-9.539 -6.939,-9.539 m 0.031,20.325 c -5.869,0 -8.621,-4.641 -8.621,-10.785 0,-6.512 3.057,-11.129 8.865,-11.129 5.779,0 8.619,4.68 8.619,10.793 10e-4,6.539 -3.023,11.121 -8.863,11.121"
   id="path4009"
   inkscape:connector-curvature="0" />
</g>
<polygon
   points="331.575,319.07 338.728,319.07 338.728,320.66 331.575,320.66 331.575,330.504 329.772,330.504 329.772,309.168 339.524,309.168 339.524,310.754 331.575,310.754 "
   id="polygon4013"
   transform="translate(-182.85616,-168.54769)" />
<g
   id="g4021"
   transform="translate(-182.85616,-168.54769)">
	<path
   d="m 361.655,322.859 c -0.916,-2.965 -2.02,-6.234 -3.121,-9.32 -0.271,-0.762 -0.547,-1.711 -0.791,-2.445 h -0.033 c -0.242,0.762 -0.547,1.711 -0.791,2.445 -1.041,2.996 -2.111,6.266 -3.027,9.32 z m 2.139,7.645 c -0.52,-1.988 -1.1,-4.129 -1.68,-6.113 h -8.684 c -0.58,1.957 -1.191,4.156 -1.711,6.113 h -1.926 c 2.174,-7.77 4.584,-14.949 7.125,-21.336 h 1.74 c 2.844,7.121 5.164,14.273 7.152,21.336 z"
   id="path4015"
   inkscape:connector-curvature="0" />
	<path
   d="m 377.341,310.969 c -0.58,-0.152 -1.312,-0.215 -1.896,-0.215 h -2.596 v 9.539 h 3.088 c 2.721,0 4.217,-1.926 4.217,-4.859 -10e-4,-2.231 -1.069,-3.973 -2.813,-4.465 m -1.588,10.886 h -2.904 v 8.648 h -1.805 v -21.336 h 4.617 c 0.855,0 1.68,0.09 2.383,0.273 2.508,0.672 4.064,2.902 4.064,5.84 0,3.947 -2.351,6.575 -6.355,6.575"
   id="path4017"
   inkscape:connector-curvature="0" />
	<path
   d="m 394.665,310.969 c -0.58,-0.152 -1.316,-0.215 -1.896,-0.215 h -2.6 v 9.539 h 3.088 c 2.721,0 4.221,-1.926 4.221,-4.859 0,-2.231 -1.073,-3.973 -2.813,-4.465 m -1.592,10.886 h -2.904 v 8.648 h -1.805 v -21.336 h 4.621 c 0.852,0 1.68,0.09 2.379,0.273 2.51,0.672 4.068,2.902 4.068,5.84 10e-4,3.947 -2.355,6.575 -6.359,6.575"
   id="path4019"
   inkscape:connector-curvature="0" />
</g>
<polygon
   points="414.015,330.504 404.507,330.504 404.507,309.168 406.312,309.168 406.312,328.883 414.015,328.883 "
   id="polygon4023"
   transform="translate(-182.85616,-168.54769)" />
<rect
   x="235.09984"
   y="140.61957"
   width="1.804"
   height="21.336"
   id="rect4025" />
<polygon
   points="427.914,318.578 435.129,318.578 435.129,320.172 427.914,320.172 427.914,328.914 436.262,328.914 436.262,330.504 426.113,330.504 426.113,309.168 436.105,309.168 436.105,310.758 427.914,310.758 "
   id="polygon4027"
   transform="translate(-182.85616,-168.54769)" />
<g
   id="g4035"
   transform="translate(-182.85616,-168.54769)">
	<path
   d="m 447.234,310.758 h -3.633 v 18.156 h 3.602 c 4.828,0 7.219,-2.875 7.219,-9.293 0,-5.078 -2.203,-8.863 -7.188,-8.863 m -0.211,19.746 h -5.23 v -21.336 h 5.566 c 5.93,0 9.016,4.188 9.016,10.359 0,7.121 -3.305,10.977 -9.352,10.977"
   id="path4029"
   inkscape:connector-curvature="0" />
	<path
   d="m 471.922,330.805 c -1.258,0 -2.633,-0.211 -3.918,-0.605 l 0.34,-1.711 c 1.281,0.426 2.57,0.672 4.004,0.672 2.66,0 4.215,-1.621 4.215,-4.07 0,-2.477 -1.711,-3.512 -4.125,-4.98 -2.75,-1.617 -4.246,-3.086 -4.246,-5.867 0,-3.117 2.324,-5.352 5.957,-5.352 0.984,0 2.32,0.184 3.148,0.461 l -0.336,1.586 c -0.914,-0.27 -2.016,-0.457 -3.023,-0.457 -2.598,0 -3.82,1.684 -3.82,3.605 0,2.418 1.68,3.484 4,4.895 2.938,1.742 4.402,3.27 4.402,5.957 0,3.577 -2.504,5.866 -6.598,5.866"
   id="path4031"
   inkscape:connector-curvature="0" />
	<path
   d="m 495.914,329.496 c -1.492,0.762 -3.18,1.219 -4.984,1.219 -5.32,0 -8.648,-3.848 -8.648,-10.637 0,-6.695 3.27,-11.125 8.715,-11.125 1.77,0 3.27,0.363 4.793,1.129 l -0.641,1.469 c -1.344,-0.641 -2.688,-0.977 -4.309,-0.977 -4.191,0 -6.574,3.762 -6.574,9.293 0,5.898 2.539,9.227 6.941,9.227 1.59,0 3.023,-0.488 4.188,-1.066 z"
   id="path4033"
   inkscape:connector-curvature="0" />
</g>
<rect
   x="318.91681"
   y="140.61957"
   width="1.8049999"
   height="21.336"
   id="rect4037" />
<polygon
   points="512.301,318.578 519.516,318.578 519.516,320.172 512.301,320.172 512.301,328.914 520.645,328.914 520.645,330.504 510.496,330.504 510.496,309.168 520.492,309.168 520.492,310.758 512.301,310.758 "
   id="polygon4039"
   transform="translate(-182.85616,-168.54769)" />
<polygon
   points="526.586,309.168 529.238,309.168 538.438,327.66 538.504,327.66 538.504,309.168 540.242,309.168 540.242,330.504 537.859,330.504 528.355,311.43 528.32,311.43 528.32,330.504 526.586,330.504 "
   id="polygon4041"
   transform="translate(-182.85616,-168.54769)" />
<g
   id="g4045"
   transform="translate(-182.85616,-168.54769)">
	<path
   d="m 559.102,329.496 c -1.5,0.762 -3.18,1.219 -4.98,1.219 -5.32,0 -8.652,-3.848 -8.652,-10.637 0,-6.695 3.273,-11.125 8.715,-11.125 1.773,0 3.27,0.363 4.797,1.129 l -0.641,1.469 c -1.344,-0.641 -2.691,-0.977 -4.309,-0.977 -4.191,0 -6.574,3.762 -6.574,9.293 0,5.898 2.539,9.227 6.941,9.227 1.586,0 3.023,-0.488 4.188,-1.066 z"
   id="path4043"
   inkscape:connector-curvature="0" />
</g>
<polygon
   points="566.43,318.578 573.641,318.578 573.641,320.172 566.43,320.172 566.43,328.914 574.773,328.914 574.773,330.504 564.625,330.504 564.625,309.168 574.625,309.168 574.625,310.758 566.43,310.758 "
   id="polygon4047"
   transform="translate(-182.85616,-168.54769)" />
<g
   id="g4051"
   transform="translate(-182.85616,-168.54769)">
	<path
   d="m 582.906,330.805 c -1.25,0 -2.629,-0.211 -3.914,-0.605 l 0.336,-1.711 c 1.285,0.426 2.57,0.672 4.008,0.672 2.656,0 4.219,-1.621 4.219,-4.07 0,-2.477 -1.711,-3.512 -4.129,-4.98 -2.754,-1.617 -4.246,-3.086 -4.246,-5.867 0,-3.117 2.32,-5.352 5.957,-5.352 0.98,0 2.328,0.184 3.152,0.461 l -0.34,1.586 c -0.918,-0.27 -2.016,-0.457 -3.023,-0.457 -2.598,0 -3.82,1.684 -3.82,3.605 0,2.418 1.68,3.484 4,4.895 2.941,1.742 4.402,3.27 4.402,5.957 0,3.577 -2.5,5.866 -6.602,5.866"
   id="path4049"
   inkscape:connector-curvature="0" />
</g>
<rect
   x="157.66484"
   y="25.235573"
   width="20.156"
   height="98.592003"
   id="rect4053"
   style="fill:#a1cae6" />
<rect
   x="191.23283"
   y="43.414551"
   width="20.152"
   height="80.413002"
   id="rect4055"
   style="fill:#a1cae6" />
<polygon
   points="369.265,290.116 369.265,196.002 364.597,194.745 364.597,291.361 "
   id="polygon4057"
   style="fill:#0087c6"
   transform="translate(-182.85616,-168.54769)" />
<polygon
   points="398.159,291.369 398.159,212.991 402.968,214.276 402.968,290.116 "
   id="polygon4059"
   style="fill:#0087c6"
   transform="translate(-182.85616,-168.54769)" />
<rect
   x="124.09982"
   y="60.922546"
   width="20.156"
   height="62.896999"
   id="rect4061"
   style="fill:#a1cae6" />
<polygon
   points="331.034,291.365 331.034,230.456 335.794,231.784 335.794,290.022 "
   id="polygon4063"
   style="fill:#0087c6"
   transform="translate(-182.85616,-168.54769)" />
<g
   id="g4075"
   transform="translate(-182.85616,-168.54769)">
	<path
   d="m 221.486,265.205 c 2.029,-1.117 2.823,-1.735 2.823,-4.822 V 242.3 h 1.882 v 17.671 c 0,3.999 -0.912,5.116 -4.087,6.499 z"
   id="path4065"
   inkscape:connector-curvature="0"
   style="fill:#ffffff" />
	<path
   d="m 230.689,262.5 h -1.882 l 6.322,-20.2 h 2.029 l 6.175,20.2 h -2 l -1.911,-6.498 h -6.734 z m 6.557,-13.82 c -0.646,-2.205 -0.911,-3.47 -1.088,-4.587 h -0.059 c -0.206,1.147 -0.5,2.44 -1.147,4.587 l -1.764,5.734 h 5.763 z"
   id="path4067"
   inkscape:connector-curvature="0"
   style="fill:#ffffff" />
	<path
   d="m 245.977,242.3 h 1.853 v 8.615 h 8.41 V 242.3 h 1.882 v 20.2 h -1.882 v -9.968 h -8.41 v 9.968 h -1.853 z"
   id="path4069"
   inkscape:connector-curvature="0"
   style="fill:#ffffff" />
	<path
   d="m 262.734,242.3 h 5.146 c 3.44,0 5.91,1.646 5.91,5.469 0,3.029 -1.206,4.764 -3.764,5.381 0.97,0.382 1.764,1.147 2.499,3.117 l 2.323,6.233 h -2 l -2.235,-5.969 c -0.912,-2.411 -1.793,-2.97 -3.675,-2.97 h -2.353 v 8.939 h -1.853 v -20.2 z m 5.117,9.732 c 3.028,0 4.028,-1.441 4.028,-4.234 0,-2.588 -1.117,-3.911 -4.146,-3.911 h -3.146 v 8.145 z"
   id="path4071"
   inkscape:connector-curvature="0"
   style="fill:#ffffff" />
	<path
   d="m 278.051,242.3 h 9.998 v 1.588 h -8.145 v 7.204 h 6.616 v 1.588 h -6.616 v 8.233 h 8.498 v 1.588 h -10.35 V 242.3 Z"
   id="path4073"
   inkscape:connector-curvature="0"
   style="fill:#ffffff" />
</g>
<g
   id="g4081"
   transform="translate(-182.85616,-168.54769)">
	<path
   d="m 224.141,232.708 1.109,-3.327 c 2.911,1.178 6.237,2.079 10.118,2.079 8.248,0 11.852,-4.782 11.852,-12.336 0,-8.108 -4.505,-11.435 -11.644,-11.435 -2.98,0 -5.96,0.485 -8.524,1.316 l 2.079,-22.455 h 21.485 v 3.673 h -17.95 l -1.386,14.485 c 1.248,-0.346 3.327,-0.554 4.852,-0.554 9.425,0 15.594,5.336 15.594,14.693 0,9.841 -5.891,16.217 -16.426,16.217 -4.437,0.001 -7.971,-0.969 -11.159,-2.356 z"
   id="path4077"
   inkscape:connector-curvature="0"
   style="fill:#ffffff" />
	<path
   d="m 258.582,208.729 c 0,-14.554 5.822,-22.871 16.287,-22.871 10.604,0 16.218,8.109 16.218,22.594 0,14.832 -5.129,22.732 -16.079,22.732 -11.02,0 -16.426,-7.832 -16.426,-22.455 z m 28,0.139 c 0,-12.683 -3.465,-19.475 -11.713,-19.475 -8.247,0 -11.712,6.723 -11.712,19.128 0,12.544 3.257,19.198 11.782,19.198 8.455,0 11.643,-6.515 11.643,-18.851 z"
   id="path4079"
   inkscape:connector-curvature="0"
   style="fill:#ffffff" />
</g>
<g
   id="g4087"
   transform="translate(-182.85616,-168.54769)">
	<path
   d="m 406.912,261.356 v 4.418 c 28.663,-2.402 56.733,-3.91 81.249,-3.66 -22.372,-1.301 -51.126,-2.051 -81.249,-0.758"
   id="path4083"
   inkscape:connector-curvature="0"
   style="fill:#a1cae6" />
	<path
   d="m 297.404,297.003 c -20.512,-5.73 -18.691,-12.839 7.812,-19.628 v -7.527 c -46.264,8.09 -66.613,18.602 -47.977,25.973 16.732,7.357 66.893,8.88 121.016,5.4 -34.371,-0.809 -63.13,-0.77 -80.851,-4.218"
   id="path4085"
   inkscape:connector-curvature="0"
   style="fill:#a1cae6" />
</g>
</svg>